<?xml version="1.0" standalone="no"?>
<!DOCTYPE svg PUBLIC "-//W3C//DTD SVG 20010904//EN"
 "http://www.w3.org/TR/2001/REC-SVG-20010904/DTD/svg10.dtd">
<svg version="1.0" xmlns="http://www.w3.org/2000/svg"
 width="600.000000pt" height="600.000000pt" viewBox="0 0 600.000000 600.000000"
 preserveAspectRatio="xMidYMid meet">
<g transform="translate(0.000000,600.000000) scale(0.050000,-0.050000)"
fill="#0358e7" stroke="none">
<path d="M5430 11750 c-859 -92 -1956 -475 -2464 -862 -35 -26 -71 -48 -80
-48 -25 0 -462 -332 -629 -478 -1340 -1170 -2114 -2993 -2001 -4711 255 -3876
4067 -6447 7655 -5161 2019 723 3543 2635 3800 4765 444 3675 -2659 6884
-6281 6495z m1356 -478 c3183 -522 5205 -3674 4331 -6752 -718 -2527 -3186
-4192 -5738 -3871 -2312 291 -4223 2144 -4619 4479 -492 2900 1612 5769 4510
6151 88 11 187 24 220 29 153 21 1109 -6 1296 -36z"/>
<path d="M4615 8065 l-5 -1175 -569 -5 c-661 -7 -600 22 -601 -276 0 -293 -56
-269 614 -269 l566 0 0 -280 0 -280 -566 0 c-414 0 -572 -6 -590 -24 -31 -31
-33 -468 -2 -487 12 -7 257 -16 545 -19 287 -3 544 -6 569 -8 l46 -2 -7 -915
c-8 -1121 -22 -1194 -279 -1452 -88 -88 -116 -130 -116 -175 l0 -58 2154 5
2154 5 97 538 c53 295 93 541 88 545 -4 5 -106 -24 -225 -63 -464 -153 -484
-155 -1593 -164 l-995 -9 5 877 5 876 598 4 c329 2 611 9 626 15 21 8 26 62
22 256 l-6 245 -625 5 -625 6 0 279 0 280 608 0 c720 0 655 -29 648 293 l-6
237 -626 5 -626 6 6 805 6 805 65 133 c98 198 415 456 560 456 16 0 25 29 25
80 l0 80 -970 0 -970 0 -5 -1175z"/>
</g>
</svg>
