<svg fill="none" height="100%" width="100%" viewBox="0 0 190 150" xmlns:xlink="http://www.w3.org/1999/xlink" xmlns="http://www.w3.org/2000/svg"><g transform="matrix(1,0,0,1,95,75)" visibility="hidden" id="i0"><animate repeatCount="indefinite" begin="0s" calcMode="discrete" dur="2.769s" values="hidden; visible; hidden; hidden; hidden" keyTimes="0; 0.240962; 0.409935; 0.999843; 1" attributeName="visibility" /><g><g id="i1" transform="translate(0,40)"><animateTransform repeatCount="indefinite" type="translate" attributeName="transform" dur="2.769s" begin="0s" calcMode="spline" values="0 40; 0 40; 0 -12; 0 -50; 0 -50" keyTimes="0; 0.240964; 0.289157; 0.409639; 1" keySplines="0 0 1 1; 0 0 1 1; 0.167 0.167 0.196 1; 0 0 1 1" fill="freeze" /><path d="M0.5,3.75C0.5,3.75,0.5,8.75,0.5,8.75" stroke-linecap="round" stroke-width="6" stroke="#0088ff"><animate repeatCount="indefinite" attributeName="d" dur="2.769s" begin="0s" calcMode="spline" values="M0.5,3.75C0.5,3.75,0.5,8.75,0.5,8.75; M0.5,3.75C0.5,3.75,0.5,8.75,0.5,8.75; M0.5,-17.75C0.5,-17.75,0.5,8.75,0.5,8.75; M0.5,-17.75C0.5,-17.75,0.5,-17.5,0.5,-17.5; M0.5,-17.75C0.5,-17.75,0.5,-17.5,0.5,-17.5" keyTimes="0; 0.240964; 0.289157; 0.409639; 1" keySplines="0 0 1 1; 0 0 1 1; 0.167 0.167 0.196 1; 0 0 1 1" fill="freeze" /></path></g></g></g><g transform="matrix(0.966,0.259,-0.259,0.966,110.093,76.855)" visibility="hidden" id="i2"><animate repeatCount="indefinite" begin="0s" calcMode="discrete" dur="2.769s" values="hidden; visible; hidden; hidden; hidden" keyTimes="0; 0.25296; 0.409935; 0.999843; 1" attributeName="visibility" /><g><g id="i1" transform="translate(0,40)"><animateTransform repeatCount="indefinite" type="translate" attributeName="transform" dur="2.769s" begin="0s" calcMode="spline" values="0 40; 0 40; 0 -12; 0 -50; 0 -50" keyTimes="0; 0.253012; 0.301205; 0.409639; 1" keySplines="0 0 1 1; 0 0 1 1; 0.167 0.167 0.196 1; 0 0 1 1" fill="freeze" /><path d="M0.5,3.75C0.5,3.75,0.5,8.75,0.5,8.75" stroke-linecap="round" stroke-width="6" stroke="#0088ff"><animate repeatCount="indefinite" attributeName="d" dur="2.769s" begin="0s" calcMode="spline" values="M0.5,3.75C0.5,3.75,0.5,8.75,0.5,8.75; M0.5,3.75C0.5,3.75,0.5,8.75,0.5,8.75; M0.5,-17.75C0.5,-17.75,0.5,8.75,0.5,8.75; M0.5,-17.75C0.5,-17.75,0.5,-17.5,0.5,-17.5; M0.5,-17.75C0.5,-17.75,0.5,-17.5,0.5,-17.5" keyTimes="0; 0.253012; 0.301205; 0.409639; 1" keySplines="0 0 1 1; 0 0 1 1; 0.167 0.167 0.196 1; 0 0 1 1" fill="freeze" /></path></g></g></g><g transform="matrix(0.866,0.5,-0.5,0.866,124.192,82.554)" visibility="hidden" id="i3"><animate repeatCount="indefinite" begin="0s" calcMode="discrete" dur="2.769s" values="hidden; visible; hidden; hidden; hidden" keyTimes="0; 0.264958; 0.409935; 0.999843; 1" attributeName="visibility" /><g><g id="i1" transform="translate(0,40)"><animateTransform repeatCount="indefinite" type="translate" attributeName="transform" dur="2.769s" begin="0s" calcMode="spline" values="0 40; 0 40; 0 -12; 0 -50; 0 -50" keyTimes="0; 0.26506; 0.313253; 0.409638; 1" keySplines="0 0 1 1; 0 0 1 1; 0.167 0.167 0.196 1; 0 0 1 1" fill="freeze" /><path d="M0.5,3.75C0.5,3.75,0.5,8.75,0.5,8.75" stroke-linecap="round" stroke-width="6" stroke="#0088ff"><animate repeatCount="indefinite" attributeName="d" dur="2.769s" begin="0s" calcMode="spline" values="M0.5,3.75C0.5,3.75,0.5,8.75,0.5,8.75; M0.5,3.75C0.5,3.75,0.5,8.75,0.5,8.75; M0.5,-17.75C0.5,-17.75,0.5,8.75,0.5,8.75; M0.5,-17.75C0.5,-17.75,0.5,-17.5,0.5,-17.5; M0.5,-17.75C0.5,-17.75,0.5,-17.5,0.5,-17.5" keyTimes="0; 0.26506; 0.313253; 0.409639; 1" keySplines="0 0 1 1; 0 0 1 1; 0.167 0.167 0.196 1; 0 0 1 1" fill="freeze" /></path></g></g></g><g transform="matrix(0.966,-0.259,0.259,0.966,79.941,77.114)" visibility="hidden" id="i4"><animate repeatCount="indefinite" begin="0s" calcMode="discrete" dur="2.769s" values="hidden; visible; hidden; hidden; hidden" keyTimes="0; 0.25296; 0.409935; 0.999843; 1" attributeName="visibility" /><g><g id="i1" transform="translate(0,40)"><animateTransform repeatCount="indefinite" type="translate" attributeName="transform" dur="2.769s" begin="0s" calcMode="spline" values="0 40; 0 40; 0 -12; 0 -50; 0 -50" keyTimes="0; 0.253012; 0.301205; 0.409639; 1" keySplines="0 0 1 1; 0 0 1 1; 0.167 0.167 0.196 1; 0 0 1 1" fill="freeze" /><path d="M0.5,3.75C0.5,3.75,0.5,8.75,0.5,8.75" stroke-linecap="round" stroke-width="6" stroke="#0088ff"><animate repeatCount="indefinite" attributeName="d" dur="2.769s" begin="0s" calcMode="spline" values="M0.5,3.75C0.5,3.75,0.5,8.75,0.5,8.75; M0.5,3.75C0.5,3.75,0.5,8.75,0.5,8.75; M0.5,-17.75C0.5,-17.75,0.5,8.75,0.5,8.75; M0.5,-17.75C0.5,-17.75,0.5,-17.5,0.5,-17.5; M0.5,-17.75C0.5,-17.75,0.5,-17.5,0.5,-17.5" keyTimes="0; 0.253012; 0.301205; 0.409639; 1" keySplines="0 0 1 1; 0 0 1 1; 0.167 0.167 0.196 1; 0 0 1 1" fill="freeze" /></path></g></g></g><g transform="matrix(0.866,-0.5,0.5,0.866,65.942,83.054)" visibility="hidden" id="i5"><animate repeatCount="indefinite" begin="0s" calcMode="discrete" dur="2.769s" values="hidden; visible; hidden; hidden; hidden" keyTimes="0; 0.264958; 0.409935; 0.999843; 1" attributeName="visibility" /><g><g id="i1" transform="translate(0,40)"><animateTransform repeatCount="indefinite" type="translate" attributeName="transform" dur="2.769s" begin="0s" calcMode="spline" values="0 40; 0 40; 0 -12; 0 -50; 0 -50" keyTimes="0; 0.26506; 0.313253; 0.409638; 1" keySplines="0 0 1 1; 0 0 1 1; 0.167 0.167 0.196 1; 0 0 1 1" fill="freeze" /><path d="M0.5,3.75C0.5,3.75,0.5,8.75,0.5,8.75" stroke-linecap="round" stroke-width="6" stroke="#0088ff"><animate repeatCount="indefinite" attributeName="d" dur="2.769s" begin="0s" calcMode="spline" values="M0.5,3.75C0.5,3.75,0.5,8.75,0.5,8.75; M0.5,3.75C0.5,3.75,0.5,8.75,0.5,8.75; M0.5,-17.75C0.5,-17.75,0.5,8.75,0.5,8.75; M0.5,-17.75C0.5,-17.75,0.5,-17.5,0.5,-17.5; M0.5,-17.75C0.5,-17.75,0.5,-17.5,0.5,-17.5" keyTimes="0; 0.26506; 0.313253; 0.409639; 1" keySplines="0 0 1 1; 0 0 1 1; 0.167 0.167 0.196 1; 0 0 1 1" fill="freeze" /></path></g></g></g><g id="i6"><g transform="translate(95,-30)"><animateTransform repeatCount="indefinite" type="translate" attributeName="transform" dur="2.769s" begin="0s" calcMode="spline" values="95 -30; 95 116.7; 95 116.7; 95 184.7; 95 184.7" keyTimes="0; 0.228916; 0.686747; 0.86747; 1" keySplines="1 0 0.833 1; 0 0 1 1; 1 0 0.833 0.833; 0 0 1 1" fill="freeze" /><g transform="scale(0.108,0.108) translate(-473.5,-285)"><g id="i7" transform="matrix(1,0,0,1,473.113,285.257)"><path fill="#20272c" d="M457.585,-94.436C457.585,-94.436,457.585,-80.867,457.585,-80.867C457.585,-80.867,-152.528,270.562,-152.528,270.562C-152.528,270.562,-457.585,94.649,-457.585,94.649C-457.585,94.649,-457.585,81.688,-457.585,81.688C-457.585,81.688,152.527,-270.562,152.527,-270.562C152.527,-270.562,457.585,-94.436,457.585,-94.436Z" /></g><g id="i8" transform="matrix(1,0,0,1,625.641,373.32)"><path fill="#17273a" d="M305.057,-182.499C305.057,-182.499,305.057,-168.93,305.057,-168.93C305.057,-168.93,-305.056,182.499,-305.056,182.499C-305.056,182.499,-305.056,169.958,-305.056,169.958C-305.056,169.958,305.057,-182.499,305.057,-182.499Z" /></g><g id="i9" transform="matrix(1,0,0,1,473.113,278.987)"><path fill="#0857a0" d="M-345.844,152.548C-345.844,152.548,-457.585,87.958,-457.585,87.958C-457.585,87.958,152.527,-264.291,152.527,-264.291C152.527,-264.291,457.585,-88.166,457.585,-88.166C457.585,-88.166,-152.528,264.291,-152.528,264.291C-152.528,264.291,-345.844,152.548,-345.844,152.548Z" /></g><g id="i10" transform="matrix(1,0,0,1,473.806,278.659)"><path fill="#4b81b4" d="M341.207,-87.838C341.207,-87.838,152.07,-197.037,152.07,-197.037C152.07,-197.037,-341.207,88.366,-341.207,88.366C-341.207,88.366,-152.574,197.037,-152.574,197.037C-152.574,197.037,341.207,-87.838,341.207,-87.838Z" /></g><g id="i11" transform="matrix(1,0,0,1,473.244,278.872)"><path fill="#d9e0e6" fill-rule="evenodd" d="M184.57,-211.953C184.4,-212.055,184.238,-212.159,184.064,-212.259C183.884,-212.363,183.697,-212.46,183.515,-212.562C183.515,-212.562,152.43,-230.494,152.43,-230.494C152.43,-230.494,125.223,-214.782,125.223,-214.782C125.175,-214.755,125.125,-214.731,125.079,-214.704C125.032,-214.677,124.989,-214.647,124.942,-214.62C124.942,-214.62,-399.355,88.153,-399.355,88.153C-399.355,88.153,-152.333,230.494,-152.333,230.494C-152.333,230.494,399.355,-88.051,399.355,-88.051C399.355,-88.051,184.57,-211.953,184.57,-211.953ZM-126.144,181.9C-127.006,181.32,-127.905,180.75,-128.86,180.199C-145.789,170.424,-171.134,169.101,-186.442,176.99C-186.442,176.99,-306.481,107.834,-306.481,107.834C-291.905,99.062,-293.94,84.044,-311.202,74.078C-312.065,73.58,-312.956,73.11,-313.86,72.656C-313.86,72.656,126.729,-182.262,126.729,-182.262C127.551,-181.712,128.406,-181.172,129.313,-180.648C146.252,-170.868,171.618,-169.549,186.921,-177.453C186.921,-177.453,307.234,-107.99,307.234,-107.99C293.337,-99.169,295.563,-84.439,312.578,-74.615C313.573,-74.041,314.601,-73.499,315.65,-72.983C315.65,-72.983,-126.144,181.9,-126.144,181.9ZM180.697,-91.265C171.94,-86.209,156.645,-86.843,146.534,-92.681C136.421,-98.521,135.325,-107.351,144.08,-112.405C152.837,-117.462,168.133,-116.827,178.245,-110.99C188.356,-105.152,189.454,-96.32,180.697,-91.265ZM-157.923,103.83C-166.68,108.887,-181.975,108.252,-192.087,102.414C-202.198,96.577,-203.297,87.745,-194.539,82.691C-185.782,77.634,-170.487,78.268,-160.376,84.106C-150.264,89.944,-149.167,98.776,-157.923,103.83Z" /></g><g id="i12" transform="matrix(1,0,0,1,475.192,279.277)"><path fill="#20272c" d="M83.917,18.939C83.917,18.939,105.43,26.714,105.43,26.714C105.43,26.714,77.667,38.629,77.667,38.629C77.667,38.629,56.61,31.019,56.61,31.019C41.454,36.196,26.159,39.051,10.726,39.583C-4.706,40.114,-19.114,38.246,-32.497,33.978C-32.497,33.978,-1.498,20.674,-1.498,20.674C7.21,22.969,15.239,23.775,22.59,23.093C29.942,22.412,37.839,20.258,46.286,16.633C61.741,10.002,63.517,4.535,51.616,0.235C46.275,-1.696,40.666,-2.515,34.788,-2.224C28.911,-1.933,22.024,-0.515,14.128,2.029C14.128,2.029,-1.142,6.953,-1.142,6.953C-18.526,12.604,-34.099,15.819,-47.862,16.599C-61.624,17.379,-74.228,15.701,-85.67,11.566C-96.962,7.486,-102.675,2.58,-102.811,-3.152C-102.947,-8.883,-97.792,-14.834,-87.349,-21.004C-87.349,-21.004,-105.43,-27.538,-105.43,-27.538C-105.43,-27.538,-77.666,-39.452,-77.666,-39.452C-77.666,-39.452,-59.356,-32.836,-59.356,-32.836C-45.538,-37.077,-31.668,-39.38,-17.745,-39.747C-3.82,-40.114,9.236,-38.449,21.425,-34.755C21.425,-34.755,-10.384,-21.105,-10.384,-21.105C-17.662,-23.167,-24.587,-23.965,-31.157,-23.497C-37.725,-23.031,-44.604,-21.255,-51.793,-18.17C-58.442,-15.316,-62.076,-12.581,-62.695,-9.964C-63.314,-7.346,-60.876,-5.045,-55.384,-3.06C-50.501,-1.295,-44.979,-0.649,-38.818,-1.122C-32.658,-1.595,-25.104,-3.269,-16.156,-6.143C-16.156,-6.143,1.727,-11.828,1.727,-11.828C17.341,-16.84,31.798,-19.606,45.098,-20.127C58.398,-20.648,70.77,-18.841,82.214,-14.705C94.421,-10.294,100.501,-5.184,100.458,0.624C100.413,6.432,94.899,12.538,83.917,18.939Z" /></g></g></g></g><g visibility="hidden" id="i13"><animate repeatCount="indefinite" begin="0s" calcMode="discrete" dur="2.769s" values="hidden; visible; visible; visible" keyTimes="0; 0.011998; 0.999843; 1" attributeName="visibility" /><g transform="translate(95,-30)"><animateTransform repeatCount="indefinite" type="translate" attributeName="transform" dur="2.769s" begin="0s" calcMode="spline" values="95 -30; 95 -30; 95 113.1; 95 113.1; 95 184.7; 95 184.7" keyTimes="0; 0.012048; 0.240964; 0.698795; 0.879518; 1" keySplines="0 0 1 1; 1 0 0.833 1; 0 0 1 1; 1 0 0.833 0.833; 0 0 1 1" fill="freeze" /><g transform="scale(0.108,0.108) translate(-473.5,-285)"><g id="i7" transform="matrix(1,0,0,1,473.113,285.257)"><path fill="#20272c" d="M457.585,-94.436C457.585,-94.436,457.585,-80.867,457.585,-80.867C457.585,-80.867,-152.528,270.562,-152.528,270.562C-152.528,270.562,-457.585,94.649,-457.585,94.649C-457.585,94.649,-457.585,81.688,-457.585,81.688C-457.585,81.688,152.527,-270.562,152.527,-270.562C152.527,-270.562,457.585,-94.436,457.585,-94.436Z" /></g><g id="i8" transform="matrix(1,0,0,1,625.641,373.32)"><path fill="#17273a" d="M305.057,-182.499C305.057,-182.499,305.057,-168.93,305.057,-168.93C305.057,-168.93,-305.056,182.499,-305.056,182.499C-305.056,182.499,-305.056,169.958,-305.056,169.958C-305.056,169.958,305.057,-182.499,305.057,-182.499Z" /></g><g id="i9" transform="matrix(1,0,0,1,473.113,278.987)"><path fill="#0857a0" d="M-345.844,152.548C-345.844,152.548,-457.585,87.958,-457.585,87.958C-457.585,87.958,152.527,-264.291,152.527,-264.291C152.527,-264.291,457.585,-88.166,457.585,-88.166C457.585,-88.166,-152.528,264.291,-152.528,264.291C-152.528,264.291,-345.844,152.548,-345.844,152.548Z" /></g><g id="i10" transform="matrix(1,0,0,1,473.806,278.659)"><path fill="#4b81b4" d="M341.207,-87.838C341.207,-87.838,152.07,-197.037,152.07,-197.037C152.07,-197.037,-341.207,88.366,-341.207,88.366C-341.207,88.366,-152.574,197.037,-152.574,197.037C-152.574,197.037,341.207,-87.838,341.207,-87.838Z" /></g><g id="i11" transform="matrix(1,0,0,1,473.244,278.872)"><path fill="#d9e0e6" fill-rule="evenodd" d="M184.57,-211.953C184.4,-212.055,184.238,-212.159,184.064,-212.259C183.884,-212.363,183.697,-212.46,183.515,-212.562C183.515,-212.562,152.43,-230.494,152.43,-230.494C152.43,-230.494,125.223,-214.782,125.223,-214.782C125.175,-214.755,125.125,-214.731,125.079,-214.704C125.032,-214.677,124.989,-214.647,124.942,-214.62C124.942,-214.62,-399.355,88.153,-399.355,88.153C-399.355,88.153,-152.333,230.494,-152.333,230.494C-152.333,230.494,399.355,-88.051,399.355,-88.051C399.355,-88.051,184.57,-211.953,184.57,-211.953ZM-126.144,181.9C-127.006,181.32,-127.905,180.75,-128.86,180.199C-145.789,170.424,-171.134,169.101,-186.442,176.99C-186.442,176.99,-306.481,107.834,-306.481,107.834C-291.905,99.062,-293.94,84.044,-311.202,74.078C-312.065,73.58,-312.956,73.11,-313.86,72.656C-313.86,72.656,126.729,-182.262,126.729,-182.262C127.551,-181.712,128.406,-181.172,129.313,-180.648C146.252,-170.868,171.618,-169.549,186.921,-177.453C186.921,-177.453,307.234,-107.99,307.234,-107.99C293.337,-99.169,295.563,-84.439,312.578,-74.615C313.573,-74.041,314.601,-73.499,315.65,-72.983C315.65,-72.983,-126.144,181.9,-126.144,181.9ZM180.697,-91.265C171.94,-86.209,156.645,-86.843,146.534,-92.681C136.421,-98.521,135.325,-107.351,144.08,-112.405C152.837,-117.462,168.133,-116.827,178.245,-110.99C188.356,-105.152,189.454,-96.32,180.697,-91.265ZM-157.923,103.83C-166.68,108.887,-181.975,108.252,-192.087,102.414C-202.198,96.577,-203.297,87.745,-194.539,82.691C-185.782,77.634,-170.487,78.268,-160.376,84.106C-150.264,89.944,-149.167,98.776,-157.923,103.83Z" /></g><g id="i12" transform="matrix(1,0,0,1,475.192,279.277)"><path fill="#20272c" d="M83.917,18.939C83.917,18.939,105.43,26.714,105.43,26.714C105.43,26.714,77.667,38.629,77.667,38.629C77.667,38.629,56.61,31.019,56.61,31.019C41.454,36.196,26.159,39.051,10.726,39.583C-4.706,40.114,-19.114,38.246,-32.497,33.978C-32.497,33.978,-1.498,20.674,-1.498,20.674C7.21,22.969,15.239,23.775,22.59,23.093C29.942,22.412,37.839,20.258,46.286,16.633C61.741,10.002,63.517,4.535,51.616,0.235C46.275,-1.696,40.666,-2.515,34.788,-2.224C28.911,-1.933,22.024,-0.515,14.128,2.029C14.128,2.029,-1.142,6.953,-1.142,6.953C-18.526,12.604,-34.099,15.819,-47.862,16.599C-61.624,17.379,-74.228,15.701,-85.67,11.566C-96.962,7.486,-102.675,2.58,-102.811,-3.152C-102.947,-8.883,-97.792,-14.834,-87.349,-21.004C-87.349,-21.004,-105.43,-27.538,-105.43,-27.538C-105.43,-27.538,-77.666,-39.452,-77.666,-39.452C-77.666,-39.452,-59.356,-32.836,-59.356,-32.836C-45.538,-37.077,-31.668,-39.38,-17.745,-39.747C-3.82,-40.114,9.236,-38.449,21.425,-34.755C21.425,-34.755,-10.384,-21.105,-10.384,-21.105C-17.662,-23.167,-24.587,-23.965,-31.157,-23.497C-37.725,-23.031,-44.604,-21.255,-51.793,-18.17C-58.442,-15.316,-62.076,-12.581,-62.695,-9.964C-63.314,-7.346,-60.876,-5.045,-55.384,-3.06C-50.501,-1.295,-44.979,-0.649,-38.818,-1.122C-32.658,-1.595,-25.104,-3.269,-16.156,-6.143C-16.156,-6.143,1.727,-11.828,1.727,-11.828C17.341,-16.84,31.798,-19.606,45.098,-20.127C58.398,-20.648,70.77,-18.841,82.214,-14.705C94.421,-10.294,100.501,-5.184,100.458,0.624C100.413,6.432,94.899,12.538,83.917,18.939Z" /></g></g></g></g><g visibility="hidden" id="i14"><animate repeatCount="indefinite" begin="0s" calcMode="discrete" dur="2.769s" values="hidden; visible; visible; visible" keyTimes="0; 0.023996; 0.999843; 1" attributeName="visibility" /><g transform="translate(95,-30)"><animateTransform repeatCount="indefinite" type="translate" attributeName="transform" dur="2.769s" begin="0s" calcMode="spline" values="95 -30; 95 -30; 95 109.5; 95 109.5; 95 184.7; 95 184.7" keyTimes="0; 0.024096; 0.253012; 0.710843; 0.891566; 1" keySplines="0 0 1 1; 1 0 0.833 1; 0 0 1 1; 1 0 0.833 0.833; 0 0 1 1" fill="freeze" /><g transform="scale(0.108,0.108) translate(-473.5,-285)"><g id="i7" transform="matrix(1,0,0,1,473.113,285.257)"><path fill="#20272c" d="M457.585,-94.436C457.585,-94.436,457.585,-80.867,457.585,-80.867C457.585,-80.867,-152.528,270.562,-152.528,270.562C-152.528,270.562,-457.585,94.649,-457.585,94.649C-457.585,94.649,-457.585,81.688,-457.585,81.688C-457.585,81.688,152.527,-270.562,152.527,-270.562C152.527,-270.562,457.585,-94.436,457.585,-94.436Z" /></g><g id="i8" transform="matrix(1,0,0,1,625.641,373.32)"><path fill="#17273a" d="M305.057,-182.499C305.057,-182.499,305.057,-168.93,305.057,-168.93C305.057,-168.93,-305.056,182.499,-305.056,182.499C-305.056,182.499,-305.056,169.958,-305.056,169.958C-305.056,169.958,305.057,-182.499,305.057,-182.499Z" /></g><g id="i9" transform="matrix(1,0,0,1,473.113,278.987)"><path fill="#0857a0" d="M-345.844,152.548C-345.844,152.548,-457.585,87.958,-457.585,87.958C-457.585,87.958,152.527,-264.291,152.527,-264.291C152.527,-264.291,457.585,-88.166,457.585,-88.166C457.585,-88.166,-152.528,264.291,-152.528,264.291C-152.528,264.291,-345.844,152.548,-345.844,152.548Z" /></g><g id="i10" transform="matrix(1,0,0,1,473.806,278.659)"><path fill="#4b81b4" d="M341.207,-87.838C341.207,-87.838,152.07,-197.037,152.07,-197.037C152.07,-197.037,-341.207,88.366,-341.207,88.366C-341.207,88.366,-152.574,197.037,-152.574,197.037C-152.574,197.037,341.207,-87.838,341.207,-87.838Z" /></g><g id="i11" transform="matrix(1,0,0,1,473.244,278.872)"><path fill="#d9e0e6" fill-rule="evenodd" d="M184.57,-211.953C184.4,-212.055,184.238,-212.159,184.064,-212.259C183.884,-212.363,183.697,-212.46,183.515,-212.562C183.515,-212.562,152.43,-230.494,152.43,-230.494C152.43,-230.494,125.223,-214.782,125.223,-214.782C125.175,-214.755,125.125,-214.731,125.079,-214.704C125.032,-214.677,124.989,-214.647,124.942,-214.62C124.942,-214.62,-399.355,88.153,-399.355,88.153C-399.355,88.153,-152.333,230.494,-152.333,230.494C-152.333,230.494,399.355,-88.051,399.355,-88.051C399.355,-88.051,184.57,-211.953,184.57,-211.953ZM-126.144,181.9C-127.006,181.32,-127.905,180.75,-128.86,180.199C-145.789,170.424,-171.134,169.101,-186.442,176.99C-186.442,176.99,-306.481,107.834,-306.481,107.834C-291.905,99.062,-293.94,84.044,-311.202,74.078C-312.065,73.58,-312.956,73.11,-313.86,72.656C-313.86,72.656,126.729,-182.262,126.729,-182.262C127.551,-181.712,128.406,-181.172,129.313,-180.648C146.252,-170.868,171.618,-169.549,186.921,-177.453C186.921,-177.453,307.234,-107.99,307.234,-107.99C293.337,-99.169,295.563,-84.439,312.578,-74.615C313.573,-74.041,314.601,-73.499,315.65,-72.983C315.65,-72.983,-126.144,181.9,-126.144,181.9ZM180.697,-91.265C171.94,-86.209,156.645,-86.843,146.534,-92.681C136.421,-98.521,135.325,-107.351,144.08,-112.405C152.837,-117.462,168.133,-116.827,178.245,-110.99C188.356,-105.152,189.454,-96.32,180.697,-91.265ZM-157.923,103.83C-166.68,108.887,-181.975,108.252,-192.087,102.414C-202.198,96.577,-203.297,87.745,-194.539,82.691C-185.782,77.634,-170.487,78.268,-160.376,84.106C-150.264,89.944,-149.167,98.776,-157.923,103.83Z" /></g><g id="i12" transform="matrix(1,0,0,1,475.192,279.277)"><path fill="#20272c" d="M83.917,18.939C83.917,18.939,105.43,26.714,105.43,26.714C105.43,26.714,77.667,38.629,77.667,38.629C77.667,38.629,56.61,31.019,56.61,31.019C41.454,36.196,26.159,39.051,10.726,39.583C-4.706,40.114,-19.114,38.246,-32.497,33.978C-32.497,33.978,-1.498,20.674,-1.498,20.674C7.21,22.969,15.239,23.775,22.59,23.093C29.942,22.412,37.839,20.258,46.286,16.633C61.741,10.002,63.517,4.535,51.616,0.235C46.275,-1.696,40.666,-2.515,34.788,-2.224C28.911,-1.933,22.024,-0.515,14.128,2.029C14.128,2.029,-1.142,6.953,-1.142,6.953C-18.526,12.604,-34.099,15.819,-47.862,16.599C-61.624,17.379,-74.228,15.701,-85.67,11.566C-96.962,7.486,-102.675,2.58,-102.811,-3.152C-102.947,-8.883,-97.792,-14.834,-87.349,-21.004C-87.349,-21.004,-105.43,-27.538,-105.43,-27.538C-105.43,-27.538,-77.666,-39.452,-77.666,-39.452C-77.666,-39.452,-59.356,-32.836,-59.356,-32.836C-45.538,-37.077,-31.668,-39.38,-17.745,-39.747C-3.82,-40.114,9.236,-38.449,21.425,-34.755C21.425,-34.755,-10.384,-21.105,-10.384,-21.105C-17.662,-23.167,-24.587,-23.965,-31.157,-23.497C-37.725,-23.031,-44.604,-21.255,-51.793,-18.17C-58.442,-15.316,-62.076,-12.581,-62.695,-9.964C-63.314,-7.346,-60.876,-5.045,-55.384,-3.06C-50.501,-1.295,-44.979,-0.649,-38.818,-1.122C-32.658,-1.595,-25.104,-3.269,-16.156,-6.143C-16.156,-6.143,1.727,-11.828,1.727,-11.828C17.341,-16.84,31.798,-19.606,45.098,-20.127C58.398,-20.648,70.77,-18.841,82.214,-14.705C94.421,-10.294,100.501,-5.184,100.458,0.624C100.413,6.432,94.899,12.538,83.917,18.939Z" /></g></g></g></g><g visibility="hidden" id="i15"><animate repeatCount="indefinite" begin="0s" calcMode="discrete" dur="2.769s" values="hidden; visible; visible; visible" keyTimes="0; 0.035994; 0.999843; 1" attributeName="visibility" /><g transform="translate(95,-30)"><animateTransform repeatCount="indefinite" type="translate" attributeName="transform" dur="2.769s" begin="0s" calcMode="spline" values="95 -30; 95 -30; 95 105.9; 95 105.9; 95 184.7; 95 184.7" keyTimes="0; 0.036145; 0.26506; 0.722892; 0.903614; 1" keySplines="0 0 1 1; 1 0 0.833 1; 0 0 1 1; 1 0 0.833 0.833; 0 0 1 1" fill="freeze" /><g transform="scale(0.108,0.108) translate(-473.5,-285)"><g id="i7" transform="matrix(1,0,0,1,473.113,285.257)"><path fill="#20272c" d="M457.585,-94.436C457.585,-94.436,457.585,-80.867,457.585,-80.867C457.585,-80.867,-152.528,270.562,-152.528,270.562C-152.528,270.562,-457.585,94.649,-457.585,94.649C-457.585,94.649,-457.585,81.688,-457.585,81.688C-457.585,81.688,152.527,-270.562,152.527,-270.562C152.527,-270.562,457.585,-94.436,457.585,-94.436Z" /></g><g id="i8" transform="matrix(1,0,0,1,625.641,373.32)"><path fill="#17273a" d="M305.057,-182.499C305.057,-182.499,305.057,-168.93,305.057,-168.93C305.057,-168.93,-305.056,182.499,-305.056,182.499C-305.056,182.499,-305.056,169.958,-305.056,169.958C-305.056,169.958,305.057,-182.499,305.057,-182.499Z" /></g><g id="i9" transform="matrix(1,0,0,1,473.113,278.987)"><path fill="#0857a0" d="M-345.844,152.548C-345.844,152.548,-457.585,87.958,-457.585,87.958C-457.585,87.958,152.527,-264.291,152.527,-264.291C152.527,-264.291,457.585,-88.166,457.585,-88.166C457.585,-88.166,-152.528,264.291,-152.528,264.291C-152.528,264.291,-345.844,152.548,-345.844,152.548Z" /></g><g id="i10" transform="matrix(1,0,0,1,473.806,278.659)"><path fill="#4b81b4" d="M341.207,-87.838C341.207,-87.838,152.07,-197.037,152.07,-197.037C152.07,-197.037,-341.207,88.366,-341.207,88.366C-341.207,88.366,-152.574,197.037,-152.574,197.037C-152.574,197.037,341.207,-87.838,341.207,-87.838Z" /></g><g id="i11" transform="matrix(1,0,0,1,473.244,278.872)"><path fill="#d9e0e6" fill-rule="evenodd" d="M184.57,-211.953C184.4,-212.055,184.238,-212.159,184.064,-212.259C183.884,-212.363,183.697,-212.46,183.515,-212.562C183.515,-212.562,152.43,-230.494,152.43,-230.494C152.43,-230.494,125.223,-214.782,125.223,-214.782C125.175,-214.755,125.125,-214.731,125.079,-214.704C125.032,-214.677,124.989,-214.647,124.942,-214.62C124.942,-214.62,-399.355,88.153,-399.355,88.153C-399.355,88.153,-152.333,230.494,-152.333,230.494C-152.333,230.494,399.355,-88.051,399.355,-88.051C399.355,-88.051,184.57,-211.953,184.57,-211.953ZM-126.144,181.9C-127.006,181.32,-127.905,180.75,-128.86,180.199C-145.789,170.424,-171.134,169.101,-186.442,176.99C-186.442,176.99,-306.481,107.834,-306.481,107.834C-291.905,99.062,-293.94,84.044,-311.202,74.078C-312.065,73.58,-312.956,73.11,-313.86,72.656C-313.86,72.656,126.729,-182.262,126.729,-182.262C127.551,-181.712,128.406,-181.172,129.313,-180.648C146.252,-170.868,171.618,-169.549,186.921,-177.453C186.921,-177.453,307.234,-107.99,307.234,-107.99C293.337,-99.169,295.563,-84.439,312.578,-74.615C313.573,-74.041,314.601,-73.499,315.65,-72.983C315.65,-72.983,-126.144,181.9,-126.144,181.9ZM180.697,-91.265C171.94,-86.209,156.645,-86.843,146.534,-92.681C136.421,-98.521,135.325,-107.351,144.08,-112.405C152.837,-117.462,168.133,-116.827,178.245,-110.99C188.356,-105.152,189.454,-96.32,180.697,-91.265ZM-157.923,103.83C-166.68,108.887,-181.975,108.252,-192.087,102.414C-202.198,96.577,-203.297,87.745,-194.539,82.691C-185.782,77.634,-170.487,78.268,-160.376,84.106C-150.264,89.944,-149.167,98.776,-157.923,103.83Z" /></g><g id="i12" transform="matrix(1,0,0,1,475.192,279.277)"><path fill="#20272c" d="M83.917,18.939C83.917,18.939,105.43,26.714,105.43,26.714C105.43,26.714,77.667,38.629,77.667,38.629C77.667,38.629,56.61,31.019,56.61,31.019C41.454,36.196,26.159,39.051,10.726,39.583C-4.706,40.114,-19.114,38.246,-32.497,33.978C-32.497,33.978,-1.498,20.674,-1.498,20.674C7.21,22.969,15.239,23.775,22.59,23.093C29.942,22.412,37.839,20.258,46.286,16.633C61.741,10.002,63.517,4.535,51.616,0.235C46.275,-1.696,40.666,-2.515,34.788,-2.224C28.911,-1.933,22.024,-0.515,14.128,2.029C14.128,2.029,-1.142,6.953,-1.142,6.953C-18.526,12.604,-34.099,15.819,-47.862,16.599C-61.624,17.379,-74.228,15.701,-85.67,11.566C-96.962,7.486,-102.675,2.58,-102.811,-3.152C-102.947,-8.883,-97.792,-14.834,-87.349,-21.004C-87.349,-21.004,-105.43,-27.538,-105.43,-27.538C-105.43,-27.538,-77.666,-39.452,-77.666,-39.452C-77.666,-39.452,-59.356,-32.836,-59.356,-32.836C-45.538,-37.077,-31.668,-39.38,-17.745,-39.747C-3.82,-40.114,9.236,-38.449,21.425,-34.755C21.425,-34.755,-10.384,-21.105,-10.384,-21.105C-17.662,-23.167,-24.587,-23.965,-31.157,-23.497C-37.725,-23.031,-44.604,-21.255,-51.793,-18.17C-58.442,-15.316,-62.076,-12.581,-62.695,-9.964C-63.314,-7.346,-60.876,-5.045,-55.384,-3.06C-50.501,-1.295,-44.979,-0.649,-38.818,-1.122C-32.658,-1.595,-25.104,-3.269,-16.156,-6.143C-16.156,-6.143,1.727,-11.828,1.727,-11.828C17.341,-16.84,31.798,-19.606,45.098,-20.127C58.398,-20.648,70.77,-18.841,82.214,-14.705C94.421,-10.294,100.501,-5.184,100.458,0.624C100.413,6.432,94.899,12.538,83.917,18.939Z" /></g></g></g></g><g visibility="hidden" id="i16"><animate repeatCount="indefinite" begin="0s" calcMode="discrete" dur="2.769s" values="hidden; visible; visible; visible" keyTimes="0; 0.047992; 0.999843; 1" attributeName="visibility" /><g transform="translate(95,-30)"><animateTransform repeatCount="indefinite" type="translate" attributeName="transform" dur="2.769s" begin="0s" calcMode="spline" values="95 -30; 95 -30; 95 102.15; 95 102.15; 95 184.7; 95 184.7" keyTimes="0; 0.048193; 0.277109; 0.73494; 0.915663; 1" keySplines="0 0 1 1; 1 0 0.833 1; 0 0 1 1; 1 0 0.833 0.833; 0 0 1 1" fill="freeze" /><g transform="scale(0.108,0.108) translate(-473.5,-285)"><g id="i7" transform="matrix(1,0,0,1,473.113,285.257)"><path fill="#20272c" d="M457.585,-94.436C457.585,-94.436,457.585,-80.867,457.585,-80.867C457.585,-80.867,-152.528,270.562,-152.528,270.562C-152.528,270.562,-457.585,94.649,-457.585,94.649C-457.585,94.649,-457.585,81.688,-457.585,81.688C-457.585,81.688,152.527,-270.562,152.527,-270.562C152.527,-270.562,457.585,-94.436,457.585,-94.436Z" /></g><g id="i8" transform="matrix(1,0,0,1,625.641,373.32)"><path fill="#17273a" d="M305.057,-182.499C305.057,-182.499,305.057,-168.93,305.057,-168.93C305.057,-168.93,-305.056,182.499,-305.056,182.499C-305.056,182.499,-305.056,169.958,-305.056,169.958C-305.056,169.958,305.057,-182.499,305.057,-182.499Z" /></g><g id="i9" transform="matrix(1,0,0,1,473.113,278.987)"><path fill="#0857a0" d="M-345.844,152.548C-345.844,152.548,-457.585,87.958,-457.585,87.958C-457.585,87.958,152.527,-264.291,152.527,-264.291C152.527,-264.291,457.585,-88.166,457.585,-88.166C457.585,-88.166,-152.528,264.291,-152.528,264.291C-152.528,264.291,-345.844,152.548,-345.844,152.548Z" /></g><g id="i10" transform="matrix(1,0,0,1,473.806,278.659)"><path fill="#4b81b4" d="M341.207,-87.838C341.207,-87.838,152.07,-197.037,152.07,-197.037C152.07,-197.037,-341.207,88.366,-341.207,88.366C-341.207,88.366,-152.574,197.037,-152.574,197.037C-152.574,197.037,341.207,-87.838,341.207,-87.838Z" /></g><g id="i11" transform="matrix(1,0,0,1,473.244,278.872)"><path fill="#d9e0e6" fill-rule="evenodd" d="M184.57,-211.953C184.4,-212.055,184.238,-212.159,184.064,-212.259C183.884,-212.363,183.697,-212.46,183.515,-212.562C183.515,-212.562,152.43,-230.494,152.43,-230.494C152.43,-230.494,125.223,-214.782,125.223,-214.782C125.175,-214.755,125.125,-214.731,125.079,-214.704C125.032,-214.677,124.989,-214.647,124.942,-214.62C124.942,-214.62,-399.355,88.153,-399.355,88.153C-399.355,88.153,-152.333,230.494,-152.333,230.494C-152.333,230.494,399.355,-88.051,399.355,-88.051C399.355,-88.051,184.57,-211.953,184.57,-211.953ZM-126.144,181.9C-127.006,181.32,-127.905,180.75,-128.86,180.199C-145.789,170.424,-171.134,169.101,-186.442,176.99C-186.442,176.99,-306.481,107.834,-306.481,107.834C-291.905,99.062,-293.94,84.044,-311.202,74.078C-312.065,73.58,-312.956,73.11,-313.86,72.656C-313.86,72.656,126.729,-182.262,126.729,-182.262C127.551,-181.712,128.406,-181.172,129.313,-180.648C146.252,-170.868,171.618,-169.549,186.921,-177.453C186.921,-177.453,307.234,-107.99,307.234,-107.99C293.337,-99.169,295.563,-84.439,312.578,-74.615C313.573,-74.041,314.601,-73.499,315.65,-72.983C315.65,-72.983,-126.144,181.9,-126.144,181.9ZM180.697,-91.265C171.94,-86.209,156.645,-86.843,146.534,-92.681C136.421,-98.521,135.325,-107.351,144.08,-112.405C152.837,-117.462,168.133,-116.827,178.245,-110.99C188.356,-105.152,189.454,-96.32,180.697,-91.265ZM-157.923,103.83C-166.68,108.887,-181.975,108.252,-192.087,102.414C-202.198,96.577,-203.297,87.745,-194.539,82.691C-185.782,77.634,-170.487,78.268,-160.376,84.106C-150.264,89.944,-149.167,98.776,-157.923,103.83Z" /></g><g id="i12" transform="matrix(1,0,0,1,475.192,279.277)"><path fill="#20272c" d="M83.917,18.939C83.917,18.939,105.43,26.714,105.43,26.714C105.43,26.714,77.667,38.629,77.667,38.629C77.667,38.629,56.61,31.019,56.61,31.019C41.454,36.196,26.159,39.051,10.726,39.583C-4.706,40.114,-19.114,38.246,-32.497,33.978C-32.497,33.978,-1.498,20.674,-1.498,20.674C7.21,22.969,15.239,23.775,22.59,23.093C29.942,22.412,37.839,20.258,46.286,16.633C61.741,10.002,63.517,4.535,51.616,0.235C46.275,-1.696,40.666,-2.515,34.788,-2.224C28.911,-1.933,22.024,-0.515,14.128,2.029C14.128,2.029,-1.142,6.953,-1.142,6.953C-18.526,12.604,-34.099,15.819,-47.862,16.599C-61.624,17.379,-74.228,15.701,-85.67,11.566C-96.962,7.486,-102.675,2.58,-102.811,-3.152C-102.947,-8.883,-97.792,-14.834,-87.349,-21.004C-87.349,-21.004,-105.43,-27.538,-105.43,-27.538C-105.43,-27.538,-77.666,-39.452,-77.666,-39.452C-77.666,-39.452,-59.356,-32.836,-59.356,-32.836C-45.538,-37.077,-31.668,-39.38,-17.745,-39.747C-3.82,-40.114,9.236,-38.449,21.425,-34.755C21.425,-34.755,-10.384,-21.105,-10.384,-21.105C-17.662,-23.167,-24.587,-23.965,-31.157,-23.497C-37.725,-23.031,-44.604,-21.255,-51.793,-18.17C-58.442,-15.316,-62.076,-12.581,-62.695,-9.964C-63.314,-7.346,-60.876,-5.045,-55.384,-3.06C-50.501,-1.295,-44.979,-0.649,-38.818,-1.122C-32.658,-1.595,-25.104,-3.269,-16.156,-6.143C-16.156,-6.143,1.727,-11.828,1.727,-11.828C17.341,-16.84,31.798,-19.606,45.098,-20.127C58.398,-20.648,70.77,-18.841,82.214,-14.705C94.421,-10.294,100.501,-5.184,100.458,0.624C100.413,6.432,94.899,12.538,83.917,18.939Z" /></g></g></g></g><g visibility="hidden" id="i17"><animate repeatCount="indefinite" begin="0s" calcMode="discrete" dur="2.769s" values="hidden; visible; visible; visible" keyTimes="0; 0.059991; 0.999843; 1" attributeName="visibility" /><g transform="translate(95,-30)"><animateTransform repeatCount="indefinite" type="translate" attributeName="transform" dur="2.769s" begin="0s" calcMode="spline" values="95 -30; 95 -30; 95 98.4; 95 98.4; 95 184.7; 95 184.7" keyTimes="0; 0.060241; 0.289157; 0.746988; 0.927711; 1" keySplines="0 0 1 1; 1 0 0.833 1; 0 0 1 1; 1 0 0.833 0.833; 0 0 1 1" fill="freeze" /><g transform="scale(0.108,0.108) translate(-473.5,-285)"><g id="i7" transform="matrix(1,0,0,1,473.113,285.257)"><path fill="#20272c" d="M457.585,-94.436C457.585,-94.436,457.585,-80.867,457.585,-80.867C457.585,-80.867,-152.528,270.562,-152.528,270.562C-152.528,270.562,-457.585,94.649,-457.585,94.649C-457.585,94.649,-457.585,81.688,-457.585,81.688C-457.585,81.688,152.527,-270.562,152.527,-270.562C152.527,-270.562,457.585,-94.436,457.585,-94.436Z" /></g><g id="i8" transform="matrix(1,0,0,1,625.641,373.32)"><path fill="#17273a" d="M305.057,-182.499C305.057,-182.499,305.057,-168.93,305.057,-168.93C305.057,-168.93,-305.056,182.499,-305.056,182.499C-305.056,182.499,-305.056,169.958,-305.056,169.958C-305.056,169.958,305.057,-182.499,305.057,-182.499Z" /></g><g id="i9" transform="matrix(1,0,0,1,473.113,278.987)"><path fill="#0857a0" d="M-345.844,152.548C-345.844,152.548,-457.585,87.958,-457.585,87.958C-457.585,87.958,152.527,-264.291,152.527,-264.291C152.527,-264.291,457.585,-88.166,457.585,-88.166C457.585,-88.166,-152.528,264.291,-152.528,264.291C-152.528,264.291,-345.844,152.548,-345.844,152.548Z" /></g><g id="i10" transform="matrix(1,0,0,1,473.806,278.659)"><path fill="#4b81b4" d="M341.207,-87.838C341.207,-87.838,152.07,-197.037,152.07,-197.037C152.07,-197.037,-341.207,88.366,-341.207,88.366C-341.207,88.366,-152.574,197.037,-152.574,197.037C-152.574,197.037,341.207,-87.838,341.207,-87.838Z" /></g><g id="i11" transform="matrix(1,0,0,1,473.244,278.872)"><path fill="#d9e0e6" fill-rule="evenodd" d="M184.57,-211.953C184.4,-212.055,184.238,-212.159,184.064,-212.259C183.884,-212.363,183.697,-212.46,183.515,-212.562C183.515,-212.562,152.43,-230.494,152.43,-230.494C152.43,-230.494,125.223,-214.782,125.223,-214.782C125.175,-214.755,125.125,-214.731,125.079,-214.704C125.032,-214.677,124.989,-214.647,124.942,-214.62C124.942,-214.62,-399.355,88.153,-399.355,88.153C-399.355,88.153,-152.333,230.494,-152.333,230.494C-152.333,230.494,399.355,-88.051,399.355,-88.051C399.355,-88.051,184.57,-211.953,184.57,-211.953ZM-126.144,181.9C-127.006,181.32,-127.905,180.75,-128.86,180.199C-145.789,170.424,-171.134,169.101,-186.442,176.99C-186.442,176.99,-306.481,107.834,-306.481,107.834C-291.905,99.062,-293.94,84.044,-311.202,74.078C-312.065,73.58,-312.956,73.11,-313.86,72.656C-313.86,72.656,126.729,-182.262,126.729,-182.262C127.551,-181.712,128.406,-181.172,129.313,-180.648C146.252,-170.868,171.618,-169.549,186.921,-177.453C186.921,-177.453,307.234,-107.99,307.234,-107.99C293.337,-99.169,295.563,-84.439,312.578,-74.615C313.573,-74.041,314.601,-73.499,315.65,-72.983C315.65,-72.983,-126.144,181.9,-126.144,181.9ZM180.697,-91.265C171.94,-86.209,156.645,-86.843,146.534,-92.681C136.421,-98.521,135.325,-107.351,144.08,-112.405C152.837,-117.462,168.133,-116.827,178.245,-110.99C188.356,-105.152,189.454,-96.32,180.697,-91.265ZM-157.923,103.83C-166.68,108.887,-181.975,108.252,-192.087,102.414C-202.198,96.577,-203.297,87.745,-194.539,82.691C-185.782,77.634,-170.487,78.268,-160.376,84.106C-150.264,89.944,-149.167,98.776,-157.923,103.83Z" /></g><g id="i12" transform="matrix(1,0,0,1,475.192,279.277)"><path fill="#20272c" d="M83.917,18.939C83.917,18.939,105.43,26.714,105.43,26.714C105.43,26.714,77.667,38.629,77.667,38.629C77.667,38.629,56.61,31.019,56.61,31.019C41.454,36.196,26.159,39.051,10.726,39.583C-4.706,40.114,-19.114,38.246,-32.497,33.978C-32.497,33.978,-1.498,20.674,-1.498,20.674C7.21,22.969,15.239,23.775,22.59,23.093C29.942,22.412,37.839,20.258,46.286,16.633C61.741,10.002,63.517,4.535,51.616,0.235C46.275,-1.696,40.666,-2.515,34.788,-2.224C28.911,-1.933,22.024,-0.515,14.128,2.029C14.128,2.029,-1.142,6.953,-1.142,6.953C-18.526,12.604,-34.099,15.819,-47.862,16.599C-61.624,17.379,-74.228,15.701,-85.67,11.566C-96.962,7.486,-102.675,2.58,-102.811,-3.152C-102.947,-8.883,-97.792,-14.834,-87.349,-21.004C-87.349,-21.004,-105.43,-27.538,-105.43,-27.538C-105.43,-27.538,-77.666,-39.452,-77.666,-39.452C-77.666,-39.452,-59.356,-32.836,-59.356,-32.836C-45.538,-37.077,-31.668,-39.38,-17.745,-39.747C-3.82,-40.114,9.236,-38.449,21.425,-34.755C21.425,-34.755,-10.384,-21.105,-10.384,-21.105C-17.662,-23.167,-24.587,-23.965,-31.157,-23.497C-37.725,-23.031,-44.604,-21.255,-51.793,-18.17C-58.442,-15.316,-62.076,-12.581,-62.695,-9.964C-63.314,-7.346,-60.876,-5.045,-55.384,-3.06C-50.501,-1.295,-44.979,-0.649,-38.818,-1.122C-32.658,-1.595,-25.104,-3.269,-16.156,-6.143C-16.156,-6.143,1.727,-11.828,1.727,-11.828C17.341,-16.84,31.798,-19.606,45.098,-20.127C58.398,-20.648,70.77,-18.841,82.214,-14.705C94.421,-10.294,100.501,-5.184,100.458,0.624C100.413,6.432,94.899,12.538,83.917,18.939Z" /></g></g></g></g></svg>